<?xml version="1.0" encoding="utf-8"?>
<!-- Generator: Adobe Illustrator 23.0.1, SVG Export Plug-In . SVG Version: 6.00 Build 0)  -->
<svg version="1.1" id="Layer_1" xmlns="http://www.w3.org/2000/svg" xmlns:xlink="http://www.w3.org/1999/xlink" x="0px" y="0px"
	 viewBox="0 0 460.9 222.1" style="enable-background:new 0 0 460.9 222.1;" xml:space="preserve">
<style type="text/css">
	.st0{enable-background:new    ;}
</style>
<title>QAS logo</title>
<g class="st0">
	<path d="M259.2,99.3c-1.1,1.4-2.5,2.4-4,3.2c-1.5,0.7-3.2,1.1-5,1.1c-2.2,0-4.3-0.5-6.2-1.6s-4.2-2.9-6.6-5.4
		c-3.6-0.1-6.8-1-9.7-2.7c-2.9-1.7-5.1-3.9-6.7-6.7c-1.6-2.8-2.4-6-2.4-9.5c0-3.6,0.8-6.8,2.5-9.7s4-5.1,7-6.8s6.3-2.5,10-2.5
		c3.7,0,7,0.8,10,2.4c3,1.6,5.3,3.9,7,6.8c1.7,2.9,2.5,6.1,2.5,9.7c0,3.1-0.6,6-1.9,8.6c-1.3,2.6-3.1,4.8-5.4,6.5
		c-2.3,1.7-5,2.9-8,3.5c2.7,2.9,5.4,4.3,8.1,4.3c2.8,0,5.1-1.1,7.1-3.4L259.2,99.3z M224.4,85.5c1.4,2.3,3.2,4.2,5.6,5.5
		c2.4,1.3,5.1,2,8,2c2.9,0,5.6-0.7,8-2c2.4-1.3,4.2-3.2,5.6-5.5c1.3-2.3,2-5,2-7.9c0-2.9-0.7-5.5-2-7.9c-1.3-2.3-3.2-4.2-5.6-5.5
		c-2.4-1.3-5-2-8-2c-2.9,0-5.6,0.7-8,2s-4.3,3.2-5.6,5.5c-1.4,2.3-2,5-2,7.9C222.4,80.5,223,83.1,224.4,85.5z"/>
	<path d="M270,92.4c-2.7-2.8-4-6.8-4-12V59h3.9v21.1c0,4.3,1,7.5,2.9,9.7c1.9,2.1,4.8,3.2,8.4,3.2c3.7,0,6.5-1.1,8.5-3.2
		c1.9-2.1,2.9-5.3,2.9-9.7V59h3.8v21.3c0,5.3-1.3,9.3-4,12c-2.7,2.8-6.4,4.1-11.2,4.1C276.5,96.5,272.7,95.1,270,92.4z"/>
	<path d="M308.3,59h3.9v37.2h-3.9V59z"/>
	<path d="M355.4,59v37.2h-3.2l-23.9-30.1v30.1h-3.9V59h3.2l23.9,30.1V59H355.4z"/>
</g>
<g class="st0">
	<path d="M373.1,94.1c-3-1.6-5.3-3.9-7-6.8c-1.7-2.9-2.5-6.1-2.5-9.7c0-3.6,0.8-6.8,2.5-9.7s4-5.1,7-6.8c3-1.6,6.3-2.4,10-2.4
		c2.8,0,5.3,0.5,7.6,1.4c2.3,0.9,4.3,2.3,5.9,4l-2.5,2.5c-2.9-2.9-6.6-4.4-11-4.4c-2.9,0-5.6,0.7-8,2c-2.4,1.3-4.3,3.2-5.7,5.5
		c-1.4,2.3-2,5-2,7.9c0,2.9,0.7,5.5,2,7.9c1.4,2.3,3.2,4.2,5.7,5.5c2.4,1.3,5.1,2,8,2c4.5,0,8.1-1.5,11-4.5l2.5,2.5
		c-1.6,1.8-3.6,3.1-6,4.1s-4.9,1.4-7.7,1.4C379.3,96.5,376,95.7,373.1,94.1z"/>
</g>
<g class="st0">
	<path d="M419.4,83.4v12.8h-3.9V83.4L400.6,59h4.2l12.7,20.9L430.3,59h3.9L419.4,83.4z"/>
</g>
<g class="st0">
	<path d="M245.1,142.3h-20.7l-4.5,9.9h-4.1l17-37.2h3.9l17,37.2h-4.1L245.1,142.3z M243.6,139.1l-8.9-20l-8.9,20H243.6z"/>
	<path d="M290.9,115v37.2h-3.2l-23.9-30.1v30.1h-3.9V115h3.2l23.9,30.1V115H290.9z"/>
	<path d="M303,115h3.9v37.2H303V115z"/>
	<path d="M357.6,115v37.2h-3.8v-29.7l-14.6,25h-1.9l-14.6-24.8v29.6H319V115h3.2l16.1,27.5l16-27.5H357.6z"/>
	<path d="M393,142.3h-20.7l-4.5,9.9h-4.1l17-37.2h3.9l17,37.2h-4.1L393,142.3z M391.6,139.1l-8.9-20l-8.9,20H391.6z"/>
	<path d="M407.8,115h3.9v33.8h20.8v3.4h-24.7V115z"/>
</g>
<g class="st0">
	<path d="M224.1,207.2c-2.5-0.9-4.5-2.1-5.9-3.5l1.5-3c1.3,1.3,3.1,2.4,5.4,3.3s4.5,1.2,6.9,1.2c3.3,0,5.8-0.6,7.5-1.8
		c1.7-1.2,2.5-2.8,2.5-4.8c0-1.5-0.5-2.7-1.4-3.6c-0.9-0.9-2-1.6-3.3-2c-1.3-0.5-3.1-1-5.5-1.6c-2.8-0.7-5-1.4-6.7-2
		c-1.7-0.7-3.1-1.7-4.3-3c-1.2-1.3-1.8-3.2-1.8-5.5c0-1.9,0.5-3.6,1.5-5.1c1-1.5,2.5-2.8,4.6-3.7c2.1-0.9,4.6-1.4,7.6-1.4
		c2.1,0,4.2,0.3,6.2,0.9c2,0.6,3.8,1.4,5.3,2.4l-1.3,3.1c-1.6-1-3.2-1.8-5-2.3c-1.8-0.5-3.5-0.8-5.2-0.8c-3.3,0-5.7,0.6-7.4,1.9
		c-1.6,1.3-2.5,2.9-2.5,4.9c0,1.5,0.5,2.7,1.4,3.6s2,1.6,3.4,2.1s3.2,1,5.5,1.6c2.7,0.7,4.9,1.3,6.6,2c1.7,0.7,3.1,1.6,4.3,3
		c1.2,1.3,1.8,3.1,1.8,5.4c0,1.9-0.5,3.6-1.5,5.1c-1,1.5-2.6,2.8-4.6,3.7s-4.7,1.4-7.7,1.4C229.3,208.5,226.6,208.1,224.1,207.2z"/>
	<path d="M285.5,171v37.2h-3.9v-17.1h-23.2v17.1h-3.9V171h3.9v16.6h23.2V171H285.5z"/>
	<path d="M323.8,204.8v3.4h-26.3V171H323v3.4h-21.5v13.2h19.2v3.3h-19.2v13.8H323.8z"/>
</g>
<g class="st0">
	<path d="M333.4,171h3.9v33.8h20.8v3.4h-24.7V171z"/>
</g>
<g class="st0">
	<path d="M368.7,174.4h-13.1V171h30v3.4h-13.1v33.8h-3.9V174.4z"/>
	<path d="M418.2,204.8v3.4h-26.3V171h25.5v3.4h-21.6v13.2h19.2v3.3h-19.2v13.8H418.2z"/>
	<path d="M452.8,208.2l-8.5-11.9c-1,0.1-1.9,0.2-3,0.2h-10v11.8h-3.9V171h13.9c4.7,0,8.5,1.1,11.1,3.4c2.7,2.3,4,5.4,4,9.3
		c0,2.9-0.7,5.4-2.2,7.4c-1.5,2-3.6,3.4-6.3,4.3l9.1,12.7H452.8z M449.7,190.6c1.9-1.6,2.9-3.9,2.9-6.8c0-3-1-5.3-2.9-6.9
		c-1.9-1.6-4.8-2.4-8.4-2.4h-9.9v18.6h9.9C444.9,193.1,447.7,192.3,449.7,190.6z"/>
</g>
<path d="M24.5,210.8h-1.2c-6.6,0-13.2,0-19.8,0c-0.6,0.1-1.2-0.2-1.5-0.8c-0.7-1.3-1.3-2.7-1.8-4.1c-0.8-2.6,0.4-4.3,3.1-4.5
	s5.4-0.4,8.1-0.4c8.8,0.1,17.7,0.2,26.5,0.3c0.7,0,1.3-0.1,1.9-0.4c5.2-1.8,10-4.4,14.3-7.7c5.2-4,8.6-9,9.3-15.8
	c1.2-11.3,4.4-22,8.5-32.6c7-17.5,16.1-34.1,27.2-49.4c9.3-13.3,19.4-25.9,30.3-37.9c3.8-4.2,8-8,12.6-11.3c1.9-1.5,3.7-3.2,5.2-5.1
	c2.6-3.2,5-6.7,8.3-9.2c1.3-0.9,2.2-2.4,2.4-3.9c0.9-5.4,2.9-10.6,6-15.2c2.4-3.6,5.8-6.3,9.8-7.9c7.5-3.2,15.5-4.8,23.6-4.9
	c3.6,0,6.2,1.6,8.6,4c1,1,2,2.1,3,3.2c0.4,0.5,1,0.7,1.6,0.6c6.9-0.3,13.9-0.6,20.8-0.8c2.9-0.1,3.1,0.2,2.8,3
	c-0.3,3.3-0.7,6.6-1.2,9.9c-0.3,2.8-1.6,5.5-3.6,7.5c-2.2,2.3-4.6,4.5-7,6.6c-2.3,1.9-5.3,2.9-8.3,2.8c-3.6,0.1-6.4,1.4-8.2,4.5
	c-2.7,4.7-7.1,6.3-12.1,7.1c-1.8,0.2-3.5,1.2-4.5,2.7c-2.9,4.1-4.7,8.9-5.1,13.9c0,2.4,0.3,4.7,0.9,7c1.2,5.3,1.9,10.8,2.1,16.2
	c0.1,8.6-2.1,16.8-4.7,24.8c-1.9,6.1-5,11.8-9.2,16.6c-3.8,4.3-7.1,9-9.8,14.1c-3.1,5.8-5.5,11.8-6.2,18.4c-0.2,1.8-0.2,3.6-0.1,5.3
	c0.3,6,0.7,12,1.2,18c0.2,3.9,1.6,7.7,4.1,10.8c1.4,1.9,2.6,4,3.7,6.2c0.7,1.3,1.7,2.4,2.9,3.2c2,1.1,3.7,2.8,4.7,4.9
	c-0.4,0-0.7,0.1-0.9,0.1c-5.4,0-10.7,0-16,0c-0.7,0-1.4-0.3-1.9-0.9c-0.6-0.7-1.3-1.4-1.9-2.2c-2.5-2.9-3.4-6.3-3.6-10
	c-0.7-11.1-1.5-22.2-2.2-33.3c-0.4-5.5,0.6-10.9,1.4-16.4c1-7.9,1.9-15.8,2.5-23.6c0.3-3.9,1.9-6.6,5.6-8c2.5-1,4.9-2.1,7.4-3.1
	c0.6-0.3,1.2-0.6,1.8-0.9c3.8-1.7,5.3-5,6.3-8.7c0.5-1.7-0.1-3.5-1.5-4.5c-2-1.4-4.1-2.7-6.2-4.1c-1.8-1.2-3.6-2.3-5.4-3.4
	c-0.8-0.4-1.6-0.7-2.5-0.8c-2-0.2-4-0.2-5.9-0.2c-0.9,0.1-1.7-0.4-2-1.3c-0.9-2.2-1.9-4.3-2.9-6.4c-0.6-1-1.2-2.1-1.9-3
	c-0.3-0.5-0.9-0.7-1.4-0.4c-0.2,0.1-0.3,0.2-0.4,0.4c-0.7,0.9-1.3,2-1.8,3.1c-1.5,3.3-2.4,6.9-2.5,10.6c-0.1,1.2-0.5,2.3-1.1,3.2
	c-1.4,2.5-3.1,4.9-4.4,7.5c-1,1.9-1.7,3.9-2.5,5.8c-0.1,0.3-0.3,0.6-0.6,0.9c-11.5,6.8-20.9,15.9-28.9,26.5
	c-9.4,12.6-16.3,27-20.2,42.3c-0.2,0.9-0.2,1.8-0.2,2.8c-0.1,3.3-0.1,6.6-0.4,9.8c-0.3,1.4-0.8,2.7-1.4,3.9c-0.6,1.5-1.4,2.9-2,4.3
	c-1,3.1-3.9,5.2-7.1,5.2c-3.9,0.3-7.7,0.5-11.6,0.6c-9.3,0.2-18.6,0.2-27.9,0.3C26.9,207.1,25,208.6,24.5,210.8z"/>
</svg>
