<svg xmlns="http://www.w3.org/2000/svg" viewBox="0 0 458.47 210.82"><defs><style>.cls-1{fill:#373f51;}.cls-2{fill:#2493f5;}</style></defs><title>QAS-Logo</title><g id="Layer_2" data-name="Layer 2"><g id="Layer_1-2" data-name="Layer 1"><path class="cls-1" d="M259.57,99.54a12.28,12.28,0,0,1-4.19,3.24,11.93,11.93,0,0,1-5.15,1.12,13.38,13.38,0,0,1-6.56-1.66,31.77,31.77,0,0,1-7-5.7,19.86,19.86,0,0,1-9.47-2.8A18.11,18.11,0,0,1,220.62,87a18.78,18.78,0,0,1-2.37-9.37,18.57,18.57,0,0,1,2.56-9.71,18.24,18.24,0,0,1,7.08-6.83,21.93,21.93,0,0,1,20.22,0,18.16,18.16,0,0,1,7.07,6.78,18.81,18.81,0,0,1,2.55,9.74A19.05,19.05,0,0,1,255.91,86a17.79,17.79,0,0,1-5.14,6.43A19.29,19.29,0,0,1,243.16,96a13.52,13.52,0,0,0,3.59,2.84,7.74,7.74,0,0,0,3.53.87,8.86,8.86,0,0,0,6.79-3.19ZM225.45,84.9a13.47,13.47,0,0,0,5.2,5.12,14.93,14.93,0,0,0,7.41,1.85A14.6,14.6,0,0,0,245.38,90a13.55,13.55,0,0,0,5.17-5.13,15,15,0,0,0,0-14.59,13.55,13.55,0,0,0-5.18-5.12A14.73,14.73,0,0,0,238,63.31a15,15,0,0,0-7.4,1.87,13.47,13.47,0,0,0-5.19,5.13,15,15,0,0,0,0,14.59Z"/><path class="cls-1" d="M269.69,92.31q-4.14-4.25-4.15-12.2l0-21.13h5.31l0,20.91q0,11.94,10.47,11.93c3.4,0,6-1,7.8-3s2.7-5,2.69-9l0-20.91h5.15l0,21.13q0,8-4.12,12.24c-2.76,2.81-6.61,4.23-11.57,4.23S272.46,95.14,269.69,92.31Z"/><path class="cls-1" d="M307.82,58.93h5.31l0,37.16h-5.31Z"/><path class="cls-1" d="M356.22,58.87l0,37.16h-4.35L329.59,68.35l0,27.71h-5.3l-.05-37.15h4.35L351,86.58l0-27.7Z"/><path class="cls-1" d="M374,94a18.08,18.08,0,0,1-7-6.78,19.91,19.91,0,0,1,0-19.48A18.18,18.18,0,0,1,374,60.89,20.74,20.74,0,0,1,384,58.41a21.12,21.12,0,0,1,8,1.45,16.25,16.25,0,0,1,6.16,4.32l-3.44,3.35a13.85,13.85,0,0,0-10.47-4.39A15.12,15.12,0,0,0,376.77,65a13.54,13.54,0,0,0-5.22,5.13,15.11,15.11,0,0,0,0,14.6,13.45,13.45,0,0,0,5.23,5.11,15,15,0,0,0,7.49,1.85,13.84,13.84,0,0,0,10.45-4.47l3.45,3.34A16.44,16.44,0,0,1,392,94.92a21,21,0,0,1-8,1.5A20.56,20.56,0,0,1,374,94Z"/><path class="cls-1" d="M419.36,83.1l0,12.85h-5.26V83L399.32,58.82H405l11.92,19.57,11.92-19.6h5.25Z"/><path class="cls-1" d="M245,142.87l-19.74,0-4.08,9.29h-5.47L232.51,115h5.26l16.92,37.14h-5.57Zm-1.86-4.24-8-18.2-8,18.22Z"/><path class="cls-1" d="M292.12,115l.05,37.15h-4.36l-22.32-27.68,0,27.71h-5.31l0-37.15h4.35l22.33,27.68,0-27.7Z"/><path class="cls-1" d="M303.27,114.94h5.31l0,37.15h-5.31Z"/><path class="cls-1" d="M354.21,152,354.13,125l-13.4,22.57h-2.44l-13.46-22.39,0,26.91h-5.09l0-37.15h4.35L339.6,141l15.26-26.14h4.35l.1,37.15Z"/><path class="cls-1" d="M394.12,142.69l-19.75,0L370.3,152h-5.47l16.78-37.18h5.25L403.79,152h-5.57Zm-1.86-4.24-8-18.2-8,18.22Z"/><path class="cls-1" d="M409.26,114.81h5.31l0,32.54,20.12,0v4.62l-25.42,0Z"/><path class="cls-1" d="M224.16,207.31A16.61,16.61,0,0,1,218,204L220,199.8a16.16,16.16,0,0,0,5.45,3.1,19.91,19.91,0,0,0,6.82,1.19c3.08,0,5.38-.53,6.9-1.58a4.82,4.82,0,0,0,2.28-4.17,4.11,4.11,0,0,0-1.25-3.1,8.54,8.54,0,0,0-3.09-1.83c-1.22-.42-2.94-.9-5.17-1.42a53.49,53.49,0,0,1-6.77-2,11.21,11.21,0,0,1-4.41-3.1,8.3,8.3,0,0,1-1.84-5.65,9.64,9.64,0,0,1,1.56-5.37,10.74,10.74,0,0,1,4.75-3.82,19.13,19.13,0,0,1,7.9-1.44,24.42,24.42,0,0,1,6.48.84,17.15,17.15,0,0,1,5.47,2.43l-1.75,4.25a19.16,19.16,0,0,0-5-2.25,18.34,18.34,0,0,0-5.2-.76c-3,0-5.26.55-6.77,1.65A5,5,0,0,0,224.1,181a4,4,0,0,0,1.28,3.1,8.74,8.74,0,0,0,3.16,1.86,52.32,52.32,0,0,0,5.12,1.4,52.06,52.06,0,0,1,6.75,2,11.29,11.29,0,0,1,4.38,3.07,8.15,8.15,0,0,1,1.84,5.57,9.53,9.53,0,0,1-1.59,5.34,10.69,10.69,0,0,1-4.82,3.82,19.92,19.92,0,0,1-8,1.42A25.63,25.63,0,0,1,224.16,207.31Z"/><path class="cls-1" d="M286.3,171l0,37.15H281l0-16.56-21.33,0,0,16.56h-5.31l0-37.16h5.31l0,16,21.34,0,0-16Z"/><path class="cls-1" d="M324.45,203.45v4.61l-27,0-.05-37.16,26.22,0v4.62l-20.91,0V187l18.63,0v4.51l-18.63,0v12Z"/><path class="cls-1" d="M333,170.9h5.3l0,32.54,20.12,0V208l-25.42,0Z"/><path class="cls-1" d="M368.47,175.47l-12.74,0v-4.62l30.74,0v4.62l-12.74,0,0,32.53h-5.25Z"/><path class="cls-1" d="M419.24,203.33V208l-27,0-.05-37.15,26.22,0v4.61l-20.92,0,0,11.41,18.63,0v4.51l-18.63,0,0,12Z"/><path class="cls-1" d="M452.69,207.91l-8-11.4c-1,.07-1.77.1-2.34.11h-9.18v11.3h-5.3l-.05-37.16h14.49q7.21,0,11.37,3.43a11.73,11.73,0,0,1,4.15,9.5,12.5,12.5,0,0,1-2.12,7.33,12,12,0,0,1-6,4.41l8.82,12.46Zm-2.84-18a8.57,8.57,0,0,0,0-12.4q-2.65-2.15-7.7-2.14l-9,0,0,16.71h9Q447.2,192.1,449.85,189.92Z"/><path class="cls-2" d="M24.47,210.79h-1.2c-6.58,0-13.17,0-19.76,0A1.36,1.36,0,0,1,2.05,210a39.34,39.34,0,0,1-1.81-4.12c-.79-2.6.4-4.26,3.12-4.46s5.41-.37,8.12-.35c8.83.05,17.66.2,26.49.29a5.45,5.45,0,0,0,1.9-.38,53,53,0,0,0,14.35-7.74c5.2-4,8.58-9,9.29-15.79,1.18-11.26,4.44-22,8.53-32.57a227.69,227.69,0,0,1,27.19-49.4,393.09,393.09,0,0,1,30.26-37.94,81,81,0,0,1,12.62-11.28,28.09,28.09,0,0,0,5.2-5.08c2.63-3.2,5-6.65,8.33-9.18A5.77,5.77,0,0,0,158,28.06a38.76,38.76,0,0,1,6-15.22,21.22,21.22,0,0,1,9.79-7.9A63.18,63.18,0,0,1,197.42,0C201,0,203.61,1.65,206,4c1,1,2,2.12,3,3.25a1.71,1.71,0,0,0,1.58.63c6.93-.28,13.85-.58,20.78-.75,2.85-.08,3.08.21,2.82,3-.29,3.31-.73,6.61-1.16,9.9a13.1,13.1,0,0,1-3.6,7.53c-2.23,2.29-4.55,4.52-7,6.6a12.66,12.66,0,0,1-8.3,2.84c-3.58.06-6.43,1.39-8.22,4.53-2.68,4.69-7.13,6.29-12.05,7.08a6.21,6.21,0,0,0-4.49,2.74,27.3,27.3,0,0,0-5.08,13.89,30,30,0,0,0,.93,7,91.27,91.27,0,0,1,2.08,16.21c.11,8.6-2.08,16.77-4.71,24.85a45.78,45.78,0,0,1-9.25,16.62A71.68,71.68,0,0,0,163.52,144c-3.07,5.77-5.48,11.79-6.21,18.35a32.71,32.71,0,0,0-.11,5.33c.33,6,.66,12,1.17,18a18.82,18.82,0,0,0,4.07,10.8,42.08,42.08,0,0,1,3.67,6.16,8,8,0,0,0,2.94,3.19,11.22,11.22,0,0,1,4.71,4.94c-.42,0-.67.07-.93.07-5.35,0-10.69,0-16,0a2.23,2.23,0,0,1-1.9-.85c-.61-.74-1.29-1.44-1.93-2.17-2.52-2.87-3.41-6.32-3.65-10q-1.08-16.63-2.24-33.26c-.39-5.54.63-10.93,1.35-16.38Q150,136.36,151,124.57c.34-3.89,1.85-6.6,5.55-8,2.49-1,4.93-2.05,7.38-3.09.61-.26,1.17-.62,1.77-.88,3.8-1.65,5.33-5,6.32-8.67a4,4,0,0,0-1.47-4.47c-2-1.44-4.12-2.73-6.2-4.07-1.79-1.15-3.56-2.33-5.41-3.38a6.27,6.27,0,0,0-2.51-.76c-2-.17-4-.21-5.92-.21a1.92,1.92,0,0,1-2-1.26c-.94-2.17-1.88-4.33-2.91-6.45a22.3,22.3,0,0,0-1.92-3,1,1,0,0,0-1.76,0,15.12,15.12,0,0,0-1.83,3.06A28.53,28.53,0,0,0,137.59,94a7.27,7.27,0,0,1-1.12,3.24c-1.4,2.53-3.05,4.94-4.4,7.5-1,1.87-1.66,3.9-2.49,5.85a1.89,1.89,0,0,1-.63.87C117.41,118.25,108,127.36,100,138a120.4,120.4,0,0,0-20.16,42.26,13.21,13.21,0,0,0-.2,2.75c-.14,3.28-.13,6.57-.44,9.84a14.22,14.22,0,0,1-1.42,3.88c-.62,1.46-1.41,2.85-2,4.33a7.57,7.57,0,0,1-7.12,5.23c-3.86.26-7.73.49-11.6.56-9.29.17-18.59.23-27.88.34A4.59,4.59,0,0,0,24.47,210.79Z"/></g></g></svg>